<svg xmlns="http://www.w3.org/2000/svg" width="38.75" height="36.158" viewBox="0 0 38.75 36.158">
  <path id="パス_1497" data-name="パス 1497" d="M37.41,46.254a2.419,2.419,0,0,0-.351-.6,1.2,1.2,0,0,0-.247-.223.828.828,0,0,0-.17-.083.655.655,0,0,0-.217-.038.636.636,0,0,0-.309.08.688.688,0,0,0-.216.2l-.141.192.076.226a.446.446,0,0,1,.02.147,1.14,1.14,0,0,1-.076.378,1.282,1.282,0,0,1-.421.569,1.332,1.332,0,0,1-.838.257A3.094,3.094,0,0,1,33.189,47a2.108,2.108,0,0,1-.622-.437,2.163,2.163,0,0,1-.361-.5,5.459,5.459,0,0,1-.435-1.237,26.216,26.216,0,0,0-.7-2.614A10.633,10.633,0,0,0,29.264,39l-.008-.009-.008-.009c-3.113-3.47-6.624-7.513-9.354-10.688-1.366-1.589-2.537-2.959-3.367-3.933l-.97-1.14-.281-.332L14.8,21.111l-.047-.067s-.567-.8-1.188-1.619c-.31-.408-.634-.82-.912-1.143a5.61,5.61,0,0,0-.388-.413,1.692,1.692,0,0,0-.181-.153.952.952,0,0,0-.11-.068.664.664,0,0,0-.166-.058.48.48,0,0,0-.1-.01.572.572,0,0,0-.208.041.676.676,0,0,0-.238.162,1.511,1.511,0,0,0-.243.337,6.023,6.023,0,0,0-.342.753c-.162.419-.312.874-.423,1.227-.025.081-.047.154-.068.221a12.555,12.555,0,0,0-1.58-.112,5.822,5.822,0,0,0-1.544.178,2.582,2.582,0,0,0-.527.222,5.67,5.67,0,0,0-.867.6,12.537,12.537,0,0,0-1.072,1.006c-.123.13-.225.241-.3.328l-2.631-.212a1.828,1.828,0,0,0-.3-.028,1.347,1.347,0,0,0-.614.139,1.179,1.179,0,0,0-.353.268,1.419,1.419,0,0,0-.3.54A1.988,1.988,0,0,0,0,23.836a2.384,2.384,0,0,0,.131.779,5.433,5.433,0,0,0,.35.76c.214.4.47.815.675,1.135s.354.541.356.544.353.518.773,1.051a9.508,9.508,0,0,0,.658.765,3.073,3.073,0,0,0,.333.3,1.484,1.484,0,0,0,.183.119.844.844,0,0,0,.234.085,4.258,4.258,0,0,1,.457.131c.3.1.652.229.929.336.139.053.258.1.343.134L5.494,30c.234.189,1.228,1.006,2.19,1.9a17.452,17.452,0,0,1,1.388,1.427,4.432,4.432,0,0,1,.421.574,1.234,1.234,0,0,1,.1.193.253.253,0,0,1,.015.054l0,.012a14.354,14.354,0,0,0,.612,4.246l.045-.015c.057.816.088,1.978.088,3.217,0,1.415-.04,2.938-.122,4.172-.042.619-.093,1.165-.154,1.584-.03.212-.064.39-.1.525-.017.067-.033.123-.048.165a.628.628,0,0,1-.03.076A5.318,5.318,0,0,1,8.92,49.3a4.627,4.627,0,0,0-.51.571,1.9,1.9,0,0,0-.2.347,1.393,1.393,0,0,0-.112.409,1.726,1.726,0,0,0-.012.211,1.669,1.669,0,0,0,.148.692,1.748,1.748,0,0,0,.748.8,2.741,2.741,0,0,0,1.231.317c.174.007.351.015.53.015a4.41,4.41,0,0,0,.814-.066,2.387,2.387,0,0,0,.6-.191,1.931,1.931,0,0,0,.776-.665,1.8,1.8,0,0,0,.109-.188c.044.077.091.153.142.226a2.194,2.194,0,0,0,.622.591,2.168,2.168,0,0,0,.87.313,5.3,5.3,0,0,0,.743.052,4.087,4.087,0,0,0,1.926-.445,2.833,2.833,0,0,0,.513-.339h6.719a3.675,3.675,0,0,0,1.8-.413,1.853,1.853,0,0,0,.6-.524,1.348,1.348,0,0,0,.2-.413c.229.168.481.34.761.519A7.69,7.69,0,0,0,32.1,52.349a6.9,6.9,0,0,0,3.477-.905,5.022,5.022,0,0,0,1.26-1.033,3.612,3.612,0,0,0,.918-2.452A4.446,4.446,0,0,0,37.41,46.254ZM8.494,31.4c-.515-.491-1.048-.96-1.486-1.338-.575-.491-.988-.823-.99-.826L5.964,29.2,5.9,29.173s-.366-.148-.8-.307c-.217-.081-.448-.165-.664-.237a5.334,5.334,0,0,0-.549-.156.679.679,0,0,1-.123-.091,4.3,4.3,0,0,1-.454-.474c-.064-.073-.128-.151-.193-.232l.862.164a1.1,1.1,0,0,0,.193.019.77.77,0,0,0,.331-.071.708.708,0,0,0,.285-.243.573.573,0,0,0,.081-.157l-.437-.141.122.039-.121-.043a.262.262,0,0,1-.26.156.548.548,0,0,1-.107-.01L2.7,27.129,2.6,27c-.1-.136-.182-.252-.239-.334l-.067-.1-.018-.025-.005-.007-.011-.017c-.055-.083-.319-.473-.595-.928-.1-.168-.2-.342-.3-.512a10.607,10.607,0,0,0,.719-1.79l2.586.207.153-.179,0,0a13.577,13.577,0,0,1,.951-.987,8.213,8.213,0,0,1,.808-.674,2.571,2.571,0,0,1,.715-.386A5.007,5.007,0,0,1,8.6,21.126a11.209,11.209,0,0,1,1.271.08c.171.02.311.041.408.056.049.006.086.013.111.017l.028,0h.009l.008,0-.242.879.443.122.562-2.043-.029-.009c.076-.24.166-.512.262-.775a7.852,7.852,0,0,1,.33-.794c.041.044.086.092.133.146.189.215.418.5.652.8.351.452.716.944.991,1.322.137.189.253.349.334.463.033.047.059.083.081.113l.491,1.821.065.078s.607.715,1.615,1.9ZM36.712,48.792a2.821,2.821,0,0,1-.577,1.017,4.452,4.452,0,0,1-1.687,1.169,6.2,6.2,0,0,1-2.353.453,6.786,6.786,0,0,1-3.657-1.084,8.493,8.493,0,0,1-2.2-1.873,2.691,2.691,0,0,1-.307-.487,1.044,1.044,0,0,1-.043-.1l0-.013-.208.056.212-.044-.9.19a2.622,2.622,0,0,0,.522.963,6.114,6.114,0,0,0,.552.62L26,49.7a1.292,1.292,0,0,1,.25.33.5.5,0,0,1,.058.222.373.373,0,0,1-.078.226,1.216,1.216,0,0,1-.564.377,3.176,3.176,0,0,1-1.087.175h-7.1l-.133.147,0,0a1.824,1.824,0,0,1-.47.32,3.209,3.209,0,0,1-1.452.315,4.588,4.588,0,0,1-.618-.043,1.233,1.233,0,0,1-.505-.182,1.364,1.364,0,0,1-.5-.572,1.814,1.814,0,0,1-.177-.784,1.376,1.376,0,0,1,.25-.833.778.778,0,0,1,.275-.225.9.9,0,0,1,.408-.087H20.9v-.46l.05-.3h0L20.9,48.32v-.149h-.648c-.176-.046-.378-.105-.6-.176l.008-.03a7.406,7.406,0,0,1-.938-.328c-.116-.053-.233-.107-.35-.167a5.267,5.267,0,0,1-1.657-1.237,3.089,3.089,0,0,1-.521-.859,2.8,2.8,0,0,1-.2-1.047c0-.079,0-.16.009-.243A4.158,4.158,0,0,1,20.2,40.3a5.118,5.118,0,0,1,.876.078l.106-.6a5.8,5.8,0,0,0-.981-.088A4.772,4.772,0,0,0,15.4,44.04c-.006.1-.01.194-.01.288a3.444,3.444,0,0,0,.245,1.291l.008.017a7.576,7.576,0,0,1-1.1-1.318c.05-.262.1-.519.147-.765.144-.743.271-1.393.362-1.859l.144-.743-.9-.176s-.387,1.986-.811,4.187c-.212,1.1-.432,2.254-.618,3.24s-.338,1.8-.412,2.24a2.084,2.084,0,0,1-.242.722,1.031,1.031,0,0,1-.25.288,1.216,1.216,0,0,1-.507.227,3.288,3.288,0,0,1-.714.065c-.157,0-.322-.007-.491-.013a1.589,1.589,0,0,1-.982-.316.756.756,0,0,1-.2-.261.735.735,0,0,1-.065-.311,1.015,1.015,0,0,1,.006-.1.526.526,0,0,1,.042-.148,1.418,1.418,0,0,1,.229-.336c.169-.195.413-.417.672-.687a4.669,4.669,0,0,0,.754-.992,1.306,1.306,0,0,0,.095-.222,3.733,3.733,0,0,0,.123-.491c.062-.325.112-.728.155-1.189.13-1.381.19-3.3.19-5.062,0-.991-.019-1.932-.057-2.7-.019-.387-.043-.731-.071-1.018a5.052,5.052,0,0,0-.107-.705l-.183.045a14.145,14.145,0,0,1-.329-3.071,1.128,1.128,0,0,0-.078-.389,2.906,2.906,0,0,0-.381-.663c-.026-.034-.054-.07-.08-.107l7.6-5.986c2.847,3.323,7.2,8.362,10.971,12.572a9.7,9.7,0,0,1,1.512,2.572,29.8,29.8,0,0,1,.922,3.293,4.642,4.642,0,0,0,.6,1.361,2.97,2.97,0,0,0,1.2,1.015,4.008,4.008,0,0,0,1.729.449,2.374,2.374,0,0,0,1-.208,2.158,2.158,0,0,0,.952-.863,2.443,2.443,0,0,0,.175-.373c.032.1.062.2.087.3a3.681,3.681,0,0,1,.1.823A2.864,2.864,0,0,1,36.712,48.792Zm-22.934-.455c.161-.854.349-1.832.533-2.789a10.059,10.059,0,0,0,2.546,2.163c.289.175.569.326.837.46H14.559A1.841,1.841,0,0,0,13.778,48.337Z" transform="translate(0.5 -17.078)" fill="#fff" stroke="#fff" stroke-width="1"/>
</svg>
